<svg width="153" height="183" viewBox="0 0 153 183" fill="none" xmlns="http://www.w3.org/2000/svg">
<g filter="url(#filter0_dd_3029_2915)">
<path fill-rule="evenodd" clip-rule="evenodd" d="M138.682 16.1085C138.682 15.7831 138.458 14.7677 137.629 13.3292C136.838 11.958 135.591 10.3703 133.8 8.89885C130.255 5.98527 124.493 3.45656 115.728 4.10125C100.518 5.22001 88.203 10.5037 79.2057 17.6254C87.8797 25.5302 93.1917 35.1646 94.5133 44.3742C95.5769 42.6933 96.8278 41.1149 98.2205 39.6867C102.731 35.061 108.942 31.7947 115.582 31.7947H138.682V16.1085ZM60.9314 160.834C62.3692 161.854 64.2055 162.273 66.2616 162.273H86.5636C89.0839 162.273 91.2742 161.643 92.8048 160.049C94.3206 158.47 94.8387 156.308 94.8387 154.021V54.5647C95.4125 50.3127 97.6915 45.9584 101.084 42.4794C105.025 38.4387 110.256 35.7947 115.582 35.7947H140.682H142.682V33.7947V16.1085C142.682 14.7758 142.08 13.0418 141.094 11.3314C140.069 9.55373 138.511 7.59304 136.34 5.80847C131.961 2.20994 125.172 -0.604183 115.435 0.112025C99.1977 1.30634 85.8493 7.08742 76.1064 14.9905C66.4053 7.29572 53.2243 1.69026 37.247 0.517413C27.5107 -0.197302 20.7227 2.61085 16.3435 6.20234C14.1718 7.98348 12.6134 9.94057 11.5882 11.7153C10.6021 13.4225 10 15.1544 10 16.4865V34.138V36.138H12H37.1006C42.4275 36.138 47.6598 38.7775 51.6 42.8098C54.9944 46.2836 57.2732 50.6311 57.8453 54.8749V153.913C57.8453 156.203 58.363 158.368 59.8777 159.949C60.2006 160.286 60.5528 160.58 60.9314 160.834ZM58.0989 44.5836C57.0503 42.9466 55.8234 41.4086 54.4609 40.0142C49.9494 35.3972 43.7388 32.138 37.1006 32.138H14V16.4865C14 16.1637 14.2227 15.1515 15.0519 13.716C15.8421 12.3481 17.0895 10.7637 18.8801 9.2952C22.4257 6.38737 28.1879 3.86317 36.9542 4.50668C51.9187 5.60519 64.0804 10.7264 73.0373 17.659C64.4593 25.6551 59.2692 35.3546 58.0989 44.5836ZM63.1997 157.536C63.0872 157.453 62.99 157.366 62.9056 157.279C62.3912 156.743 61.9865 155.779 61.9865 154.021V56.9378C61.9865 56.1637 61.9384 55.389 61.8453 54.6168V48.5332C61.8453 39.3627 66.8159 28.7939 76.1362 20.2413C85.7221 28.8414 90.8387 39.5638 90.8387 48.8475V54.3062C90.745 55.0824 90.6966 55.8612 90.6966 56.6393V153.913C90.6966 155.676 90.2914 156.644 89.7761 157.181C89.2764 157.703 88.3297 158.177 86.4216 158.177H66.1202C64.6614 158.177 63.7645 157.9 63.1997 157.536Z" fill="white"/>
</g>
<defs>
<filter id="filter0_dd_3029_2915" x="0" y="0" width="152.682" height="182.273" filterUnits="userSpaceOnUse" color-interpolation-filters="sRGB">
<feFlood flood-opacity="0" result="BackgroundImageFix"/>
<feColorMatrix in="SourceAlpha" type="matrix" values="0 0 0 0 0 0 0 0 0 0 0 0 0 0 0 0 0 0 127 0" result="hardAlpha"/>
<feOffset dy="10"/>
<feGaussianBlur stdDeviation="5"/>
<feComposite in2="hardAlpha" operator="out"/>
<feColorMatrix type="matrix" values="0 0 0 0 0.65098 0 0 0 0 0.65098 0 0 0 0 0.654902 0 0 0 0.3 0"/>
<feBlend mode="normal" in2="BackgroundImageFix" result="effect1_dropShadow_3029_2915"/>
<feColorMatrix in="SourceAlpha" type="matrix" values="0 0 0 0 0 0 0 0 0 0 0 0 0 0 0 0 0 0 127 0" result="hardAlpha"/>
<feOffset dy="4"/>
<feGaussianBlur stdDeviation="2"/>
<feComposite in2="hardAlpha" operator="out"/>
<feColorMatrix type="matrix" values="0 0 0 0 0 0 0 0 0 0 0 0 0 0 0 0 0 0 0.25 0"/>
<feBlend mode="normal" in2="effect1_dropShadow_3029_2915" result="effect2_dropShadow_3029_2915"/>
<feBlend mode="normal" in="SourceGraphic" in2="effect2_dropShadow_3029_2915" result="shape"/>
</filter>
</defs>
</svg>
