<svg width="151" height="25" viewBox="0 0 151 25" fill="none" xmlns="http://www.w3.org/2000/svg">
<path d="M9.152 24C7.488 24 6.15467 23.5947 5.152 22.784C4.14933 21.9733 3.648 20.5333 3.648 18.464V11.552H0.928V8.128H3.648L4.128 3.872H7.744V8.128H12.032V11.552H7.744V18.496C7.744 19.264 7.904 19.7973 8.224 20.096C8.56533 20.3733 9.14133 20.512 9.952 20.512H11.936V24H9.152ZM21.8945 24.384C20.2945 24.384 18.8758 24.0427 17.6385 23.36C16.4012 22.6773 15.4305 21.7173 14.7265 20.48C14.0225 19.2427 13.6705 17.8133 13.6705 16.192C13.6705 14.5493 14.0118 13.088 14.6945 11.808C15.3985 10.528 16.3585 9.536 17.5745 8.832C18.8118 8.10667 20.2625 7.744 21.9265 7.744C23.4838 7.744 24.8598 8.08533 26.0545 8.768C27.2492 9.45067 28.1772 10.3893 28.8385 11.584C29.5212 12.7573 29.8625 14.0693 29.8625 15.52C29.8625 15.7547 29.8518 16 29.8305 16.256C29.8305 16.512 29.8198 16.7787 29.7985 17.056H17.7345C17.8198 18.2933 18.2465 19.264 19.0145 19.968C19.8038 20.672 20.7532 21.024 21.8625 21.024C22.6945 21.024 23.3878 20.8427 23.9425 20.48C24.5185 20.096 24.9452 19.6053 25.2225 19.008H29.3825C29.0838 20.0107 28.5825 20.928 27.8785 21.76C27.1958 22.5707 26.3425 23.2107 25.3185 23.68C24.3158 24.1493 23.1745 24.384 21.8945 24.384ZM21.9265 11.072C20.9238 11.072 20.0385 11.36 19.2705 11.936C18.5025 12.4907 18.0118 13.344 17.7985 14.496H25.7025C25.6385 13.4507 25.2545 12.6187 24.5505 12C23.8465 11.3813 22.9718 11.072 21.9265 11.072ZM38.9075 24.384C37.4995 24.384 36.2622 24.16 35.1955 23.712C34.1288 23.2427 33.2755 22.6027 32.6355 21.792C31.9955 20.9813 31.6115 20.0427 31.4835 18.976H35.6115C35.7395 19.5947 36.0808 20.128 36.6355 20.576C37.2115 21.0027 37.9475 21.216 38.8435 21.216C39.7395 21.216 40.3902 21.0347 40.7955 20.672C41.2222 20.3093 41.4355 19.8933 41.4355 19.424C41.4355 18.7413 41.1368 18.2827 40.5395 18.048C39.9422 17.792 39.1102 17.5467 38.0435 17.312C37.3608 17.1627 36.6675 16.9813 35.9635 16.768C35.2595 16.5547 34.6088 16.288 34.0115 15.968C33.4355 15.6267 32.9662 15.2 32.6035 14.688C32.2408 14.1547 32.0595 13.504 32.0595 12.736C32.0595 11.328 32.6142 10.144 33.7235 9.184C34.8542 8.224 36.4328 7.744 38.4595 7.744C40.3368 7.744 41.8302 8.18133 42.9395 9.056C44.0702 9.93067 44.7422 11.136 44.9555 12.672H41.0835C40.8488 11.4987 39.9635 10.912 38.4275 10.912C37.6595 10.912 37.0622 11.0613 36.6355 11.36C36.2302 11.6587 36.0275 12.032 36.0275 12.48C36.0275 12.9493 36.3368 13.3227 36.9555 13.6C37.5742 13.8773 38.3955 14.1333 39.4195 14.368C40.5288 14.624 41.5422 14.912 42.4595 15.232C43.3982 15.5307 44.1448 15.9893 44.6995 16.608C45.2542 17.2053 45.5315 18.0693 45.5315 19.2C45.5528 20.1813 45.2968 21.0667 44.7635 21.856C44.2302 22.6453 43.4622 23.264 42.4595 23.712C41.4568 24.16 40.2728 24.384 38.9075 24.384ZM48.2 24V0.959999H52.296V24H48.2ZM60.9933 24.384C59.6279 24.384 58.5079 24.1707 57.6333 23.744C56.7586 23.296 56.1079 22.7093 55.6812 21.984C55.2546 21.2587 55.0412 20.4587 55.0412 19.584C55.0412 18.112 55.6172 16.9173 56.7692 16C57.9213 15.0827 59.6493 14.624 61.9532 14.624H65.9853V14.24C65.9853 13.152 65.6759 12.352 65.0573 11.84C64.4386 11.328 63.6706 11.072 62.7533 11.072C61.9213 11.072 61.1959 11.2747 60.5773 11.68C59.9586 12.064 59.5746 12.64 59.4253 13.408H55.4252C55.5319 12.256 55.9159 11.2533 56.5773 10.4C57.2599 9.54667 58.1346 8.896 59.2013 8.448C60.2679 7.97867 61.4626 7.744 62.7853 7.744C65.0466 7.744 66.8279 8.30933 68.1293 9.44C69.4306 10.5707 70.0813 12.1707 70.0813 14.24V24H66.5933L66.2093 21.44C65.7399 22.2933 65.0786 22.9973 64.2253 23.552C63.3933 24.1067 62.3159 24.384 60.9933 24.384ZM61.9213 21.184C63.0946 21.184 64.0013 20.8 64.6413 20.032C65.3026 19.264 65.7186 18.3147 65.8893 17.184H62.4012C61.3133 17.184 60.5346 17.3867 60.0653 17.792C59.5959 18.176 59.3612 18.656 59.3612 19.232C59.3612 19.8507 59.5959 20.3307 60.0653 20.672C60.5346 21.0133 61.1533 21.184 61.9213 21.184ZM82.438 24.384C81.2433 24.384 80.198 24.16 79.302 23.712C78.406 23.264 77.6807 22.6347 77.126 21.824L76.678 24H73.03V0.959999H77.126V10.4C77.638 9.696 78.31 9.07733 79.142 8.544C79.9953 8.01067 81.094 7.744 82.438 7.744C83.9313 7.744 85.2647 8.10667 86.438 8.832C87.6113 9.55733 88.5393 10.5493 89.222 11.808C89.9047 13.0667 90.246 14.496 90.246 16.096C90.246 17.696 89.9047 19.1253 89.222 20.384C88.5393 21.6213 87.6113 22.6027 86.438 23.328C85.2647 24.032 83.9313 24.384 82.438 24.384ZM81.574 20.8C82.8753 20.8 83.9527 20.3627 84.806 19.488C85.6593 18.6133 86.086 17.4827 86.086 16.096C86.086 14.7093 85.6593 13.568 84.806 12.672C83.9527 11.776 82.8753 11.328 81.574 11.328C80.2513 11.328 79.1633 11.776 78.31 12.672C77.478 13.5467 77.062 14.6773 77.062 16.064C77.062 17.4507 77.478 18.592 78.31 19.488C79.1633 20.3627 80.2513 20.8 81.574 20.8ZM98.417 24.384C97.0517 24.384 95.9317 24.1707 95.057 23.744C94.1823 23.296 93.5317 22.7093 93.105 21.984C92.6783 21.2587 92.465 20.4587 92.465 19.584C92.465 18.112 93.041 16.9173 94.193 16C95.345 15.0827 97.073 14.624 99.377 14.624H103.409V14.24C103.409 13.152 103.1 12.352 102.481 11.84C101.862 11.328 101.094 11.072 100.177 11.072C99.345 11.072 98.6197 11.2747 98.001 11.68C97.3823 12.064 96.9983 12.64 96.849 13.408H92.849C92.9557 12.256 93.3397 11.2533 94.001 10.4C94.6837 9.54667 95.5583 8.896 96.625 8.448C97.6917 7.97867 98.8863 7.744 100.209 7.744C102.47 7.744 104.252 8.30933 105.553 9.44C106.854 10.5707 107.505 12.1707 107.505 14.24V24H104.017L103.633 21.44C103.164 22.2933 102.502 22.9973 101.649 23.552C100.817 24.1067 99.7397 24.384 98.417 24.384ZM99.345 21.184C100.518 21.184 101.425 20.8 102.065 20.032C102.726 19.264 103.142 18.3147 103.313 17.184H99.825C98.737 17.184 97.9583 17.3867 97.489 17.792C97.0197 18.176 96.785 18.656 96.785 19.232C96.785 19.8507 97.0197 20.3307 97.489 20.672C97.9583 21.0133 98.577 21.184 99.345 21.184ZM110.454 24V8.128H114.07L114.39 10.816C114.88 9.87733 115.584 9.13067 116.502 8.576C117.44 8.02133 118.539 7.744 119.798 7.744C121.76 7.744 123.286 8.36267 124.374 9.6C125.462 10.8373 126.006 12.6507 126.006 15.04V24H121.91V15.424C121.91 14.0587 121.632 13.0133 121.078 12.288C120.523 11.5627 119.659 11.2 118.486 11.2C117.334 11.2 116.384 11.6053 115.638 12.416C114.912 13.2267 114.55 14.3573 114.55 15.808V24H110.454ZM128.962 24V0.959999H133.058V14.56L138.691 8.128H143.555L137.059 15.36L144.611 24H139.491L133.058 16.032V24H128.962ZM147.95 24.224C147.203 24.224 146.585 23.9893 146.094 23.52C145.625 23.0507 145.39 22.4853 145.39 21.824C145.39 21.1413 145.625 20.5653 146.094 20.096C146.585 19.6267 147.203 19.392 147.95 19.392C148.697 19.392 149.305 19.6267 149.774 20.096C150.265 20.5653 150.51 21.1413 150.51 21.824C150.51 22.4853 150.265 23.0507 149.774 23.52C149.305 23.9893 148.697 24.224 147.95 24.224Z" fill="#EB3850"/>
</svg>
