<svg width="32" height="38" viewBox="0 0 32 38" fill="none" xmlns="http://www.w3.org/2000/svg">
<path d="M0.0187033 20.6136C-0.312002 15.0372 3.77425 9.34539 9.78313 9.34539C11.1668 9.34539 11.7943 9.65837 13.3014 10.1146C14.1083 10.3588 15.4757 11.0376 16.2663 11.0376C17.0569 11.0376 18.0057 10.5376 19.2855 10.081C21.1011 9.43318 22.1749 9.3639 23.2239 9.34539C26.7423 9.34539 29.3253 10.7763 30.9722 12.9989C28.2539 14.7198 26.8213 16.8063 26.7423 20.1906C26.7423 23.2673 28.7584 26.267 32 27.613C31.2094 30.8435 26.9399 37.4968 23.4216 37.4968C22.2135 37.4296 21.471 37.2461 20.0614 36.7276C19.011 36.2797 17.6104 35.9585 16.7012 35.9585C15.7524 35.92 14.689 36.2192 13.3607 36.7276C12.2341 37.1589 11.5628 37.4037 10.0203 37.4968C7.09492 37.6734 0.604849 30.4974 0.0187033 20.6136Z" fill="#EB3850"/>
<path d="M18.1638 3.34591C16.532 5.05554 15.9105 7.30711 16.0291 9.34539C18.7173 9.1531 20.5753 8.07627 22.2752 6.07644C23.975 4.07661 23.9875 2.62343 23.975 0.5C21.9965 0.813208 19.7056 1.73066 18.1638 3.34591Z" fill="#EB3850"/>
</svg>
