<svg width="35" height="35" viewBox="0 0 35 35" fill="none" xmlns="http://www.w3.org/2000/svg">
<path d="M13.125 32.0833C13.9304 32.0833 14.5833 31.4304 14.5833 30.625C14.5833 29.8195 13.9304 29.1666 13.125 29.1666C12.3195 29.1666 11.6666 29.8195 11.6666 30.625C11.6666 31.4304 12.3195 32.0833 13.125 32.0833Z" stroke="#EB3850" stroke-width="2" stroke-linecap="round" stroke-linejoin="round"/>
<path d="M29.1667 32.0833C29.9721 32.0833 30.625 31.4304 30.625 30.625C30.625 29.8195 29.9721 29.1666 29.1667 29.1666C28.3613 29.1666 27.7084 29.8195 27.7084 30.625C27.7084 31.4304 28.3613 32.0833 29.1667 32.0833Z" stroke="#EB3850" stroke-width="2" stroke-linecap="round" stroke-linejoin="round"/>
<path d="M1.45837 1.45837H7.29171L11.2 20.9855C11.3334 21.6569 11.6987 22.26 12.2319 22.6892C12.7651 23.1185 13.4323 23.3465 14.1167 23.3334H28.2917C28.9761 23.3465 29.6433 23.1185 30.1765 22.6892C30.7098 22.26 31.075 21.6569 31.2084 20.9855L33.5417 8.75004H8.75004" stroke="#EB3850" stroke-width="2" stroke-linecap="round" stroke-linejoin="round"/>
</svg>
